<!DOCTYPE svg PUBLIC "-//W3C//DTD SVG 20010904//EN" "http://www.w3.org/TR/2001/REC-SVG-20010904/DTD/svg10.dtd">
<svg version="1.0" xmlns="http://www.w3.org/2000/svg" width="337px" height="332px" viewBox="0 0 3370 3320" preserveAspectRatio="xMidYMid meet">
<g id="layer101" fill="#015941" stroke="none">
 <path d="M2440 3284 c-117 -33 -427 -124 -1420 -414 -509 -148 -480 -139 -480 -154 0 -18 171 -208 457 -508 l254 -266 64 -11 c156 -27 547 -71 609 -69 l70 3 -165 180 c-302 330 -464 529 -475 582 -7 37 13 61 87 101 l56 30 350 -381 c193 -210 391 -425 441 -477 l89 -95 142 -3 c113 -3 153 0 196 13 61 20 64 19 163 -60 44 -35 51 -47 62 -98 24 -107 -8 -132 -156 -121 -93 7 -144 1 -144 -15 0 -14 159 -190 319 -353 79 -81 151 -157 159 -169 22 -32 20 -93 -3 -120 -26 -28 -75 -49 -118 -49 -30 0 -41 9 -96 75 -33 41 -61 77 -61 80 0 2 -113 119 -251 259 -233 237 -255 256 -303 270 -86 25 -198 42 -521 80 -16 1 -60 7 -97 11 -38 4 -68 4 -68 0 0 -15 60 -78 385 -405 183 -184 336 -346 340 -358 9 -31 -47 -144 -80 -162 -29 -16 -42 -13 -320 56 -401 100 -856 239 -1307 400 -114 41 -209 74 -212 74 -3 0 -6 -11 -6 -24 0 -15 14 -36 38 -58 40 -36 429 -296 800 -534 261 -167 297 -194 353 -270 22 -30 46 -54 54 -54 8 0 130 34 272 75 142 42 265 77 273 79 8 2 22 6 30 9 8 3 227 67 485 142 497 144 652 192 659 204 4 5 -461 1607 -715 2469 -21 70 -23 72 -53 71 -17 0 -87 -16 -156 -35z"/>
 <path d="M132 2610 c-68 -21 -126 -40 -129 -43 -3 -4 12 -68 33 -143 l39 -138 90 -42 c49 -23 142 -58 205 -78 142 -45 397 -108 420 -104 13 2 -31 59 -168 214 -292 330 -333 374 -351 373 -9 -1 -71 -18 -139 -39z"/>
 <path d="M180 1942 c0 -25 151 -517 162 -528 7 -7 238 -83 513 -169 275 -86 615 -192 755 -236 140 -44 266 -79 279 -77 20 3 -31 59 -347 379 -394 399 -377 385 -486 406 -141 27 -338 77 -509 129 -117 35 -219 66 -228 68 -9 3 -38 11 -63 20 -52 18 -76 20 -76 8z"/>
 <path d="M490 885 c0 -12 133 -462 141 -477 27 -50 505 -158 702 -158 76 0 88 2 85 16 -2 9 -176 133 -388 276 -212 143 -386 264 -388 269 -2 5 -8 9 -14 9 -6 0 -33 16 -59 35 -44 31 -79 45 -79 30z"/>
 <path d="M700 179 c0 -8 9 -51 21 -95 l21 -82 62 18 c213 61 256 74 256 80 0 3 -55 19 -122 34 -68 16 -127 31 -133 34 -5 3 -16 7 -25 8 -8 1 -30 5 -47 9 -25 6 -33 4 -33 -6z"/>
 </g>

</svg>